<svg version="1.1" id="Layer_1" xmlns="http://www.w3.org/2000/svg" xmlns:xlink="http://www.w3.org/1999/xlink" x="0px" y="0px"
	 width="100%" viewBox="0 0 1533 1516" enable-background="new 0 0 1533 1516" xml:space="preserve">
<path fill="#F1CA1D" opacity="1.000000" stroke="none" 
	d="
M1.223524,745.320312 
	C1.000000,742.299988 1.000000,739.599976 1.000000,736.449951 
	C1.856316,734.983765 1.495580,733.765137 1.480934,732.643372 
	C1.183258,709.843872 1.818811,687.056946 3.104233,664.305603 
	C3.862978,650.876160 5.946588,637.543579 8.050883,624.247498 
	C14.803246,581.582336 25.219086,539.822754 39.416924,499.030243 
	C54.003880,457.119751 72.110489,416.794342 93.769035,378.028473 
	C114.367271,341.160400 138.104294,306.466187 164.813004,273.808380 
	C175.019379,261.328644 185.742828,249.277817 196.688828,237.408554 
	C207.764938,225.398209 219.175049,213.730209 230.998825,202.507843 
	C269.617279,165.853699 311.596985,133.548782 357.340576,106.198082 
	C373.779816,96.368851 390.492310,87.019432 407.707458,78.659798 
	C458.603363,53.944923 511.118561,33.559101 566.328064,20.592688 
	C593.863708,14.125717 621.707947,9.437304 649.737488,5.637602 
	C676.853943,1.961675 704.092285,1.719985 731.677246,1.224051 
	C742.354248,1.000000 752.708435,1.000000 763.531372,1.000000 
	C765.360657,1.961952 766.907898,1.477651 768.355835,1.473131 
	C781.831909,1.431059 795.290588,2.124065 808.754822,2.383304 
	C827.600159,2.746149 846.182861,5.224288 864.760681,7.946153 
	C888.303467,11.395447 911.603027,16.142962 934.683472,21.880579 
	C958.114075,27.705235 981.199829,34.744347 1003.977966,42.762985 
	C1037.463379,54.550915 1070.004395,68.611099 1101.765869,84.402832 
	C1146.130859,106.461029 1188.245728,132.263672 1227.622559,162.383438 
	C1245.452637,176.021744 1262.668213,190.421310 1279.374390,205.454300 
	C1289.154419,214.254822 1298.704102,223.339615 1307.897583,232.658951 
	C1319.786011,244.710129 1331.534912,256.968079 1342.692139,269.776276 
	C1356.576294,285.715057 1369.979736,302.020111 1382.663330,318.902100 
	C1405.984985,349.943298 1426.961426,382.499054 1445.487671,416.655975 
	C1467.778320,457.753021 1486.382080,500.410278 1500.536987,544.961426 
	C1513.501831,585.767456 1523.287476,627.311584 1529.363159,669.749817 
	C1532.437134,691.221436 1533.087769,712.765869 1533.776611,734.681274 
	C1534.000000,761.354248 1534.000000,787.708435 1534.000000,814.531372 
	C1532.770386,821.725220 1533.242065,828.567810 1533.156860,835.309814 
	C1532.703979,871.098572 1526.673950,906.106445 1519.111328,940.909607 
	C1509.144653,986.775940 1493.986328,1030.982178 1475.431274,1074.022705 
	C1455.926880,1119.265015 1432.013672,1162.123047 1403.696899,1202.433472 
	C1387.339722,1225.718872 1369.652954,1247.982666 1350.674194,1269.259155 
	C1335.913330,1285.807251 1320.506348,1301.697876 1304.499023,1316.972656 
	C1287.296143,1333.388062 1269.134644,1348.767212 1250.346313,1363.383911 
	C1226.138794,1382.216187 1200.751953,1399.293701 1174.378174,1414.925171 
	C1145.976074,1431.759155 1116.504761,1446.485840 1086.145386,1459.425293 
	C1049.174927,1475.182251 1011.233521,1488.095581 972.148804,1497.524536 
	C943.358154,1504.470337 914.284424,1509.842285 884.857056,1513.412354 
	C871.452881,1515.038452 858.023254,1515.329834 844.590698,1516.066895 
	C837.602112,1516.450439 830.621094,1516.373047 823.318970,1516.776611 
	C799.645752,1517.000000 776.291565,1517.000000 752.468628,1517.000000 
	C744.770142,1515.787109 737.438232,1516.292236 730.186584,1516.156494 
	C704.495117,1515.675781 679.161072,1512.370850 653.926453,1507.902710 
	C617.156250,1501.392090 581.072266,1492.119873 545.652222,1480.372925 
	C516.564758,1470.726074 488.065399,1459.530151 460.188599,1446.729614 
	C419.992188,1428.272217 381.503815,1406.801514 344.913513,1381.977417 
	C322.324677,1366.652588 300.697876,1350.045532 279.720123,1332.546875 
	C253.838867,1310.957886 229.719879,1287.508789 206.652039,1263.051880 
	C170.823471,1225.065796 139.067444,1183.849731 111.896477,1139.158325 
	C99.864609,1119.368164 88.428078,1099.250977 78.249565,1078.468018 
	C64.623260,1050.645142 52.558144,1022.148560 42.266903,992.886475 
	C28.872538,954.801208 18.423069,915.940613 11.282889,876.244019 
	C6.753934,851.064819 2.898351,825.774719 2.353093,800.049072 
	C1.968702,781.913208 1.518434,763.781128 1.223524,745.320312 
z"/>
<path fill="#FFFFFF" opacity="1.000000" stroke="none" 
	d="
M1.000000,745.468628 
	C2.740950,745.999695 1.930083,747.684143 1.957651,749.044128 
	C2.062321,754.207581 1.926924,759.375732 2.013031,764.539856 
	C2.332300,783.687622 4.015096,802.729126 5.874675,821.788696 
	C9.681363,860.805176 17.179586,899.129761 27.218931,936.927185 
	C33.915825,962.140503 42.175400,986.906860 51.534134,1011.321106 
	C61.266670,1036.710449 72.065712,1061.611084 84.475708,1085.751953 
	C104.329445,1124.373169 127.001114,1161.287842 153.310669,1195.931030 
	C166.442642,1213.222900 180.283905,1229.876221 194.546509,1246.246216 
	C211.935013,1266.203857 230.689667,1284.816772 249.820251,1302.989380 
	C267.569946,1319.850342 286.440369,1335.515625 305.807648,1350.610596 
	C333.108917,1371.889404 361.699677,1391.184692 391.498840,1408.645264 
	C416.799591,1423.469971 443.013123,1436.612305 469.856476,1448.528076 
	C494.063080,1459.273315 518.682068,1468.901245 543.771729,1477.273315 
	C575.825439,1487.969238 608.390869,1496.785767 641.629211,1503.167114 
	C659.310425,1506.561646 677.036926,1509.662964 694.878601,1511.794067 
	C706.782959,1513.215942 718.765320,1514.377319 730.763428,1515.229492 
	C737.700623,1515.722168 744.654419,1515.522827 751.781860,1516.625244 
	C503.238129,1517.000000 254.476257,1516.986572 5.714436,1517.115234 
	C1.588108,1517.117310 0.892134,1516.198853 0.893967,1512.217163 
	C1.011582,1256.790527 1.000000,1001.363953 1.000000,745.468628 
z"/>
<path fill="#FFFFFF" opacity="1.000000" stroke="none" 
	d="
M1534.000000,734.531372 
	C1533.007568,734.639282 1533.026367,733.779114 1533.017090,732.956726 
	C1532.808472,714.481873 1530.316650,696.225769 1528.084839,677.922058 
	C1523.207153,637.918457 1514.256348,598.791443 1502.867188,560.227905 
	C1493.148682,527.321228 1481.139893,495.225464 1466.613159,464.085236 
	C1453.930176,436.897125 1440.003540,410.415588 1424.463501,384.732941 
	C1410.561035,361.756653 1395.526001,339.554840 1379.380249,318.162018 
	C1367.117432,301.913910 1354.249512,286.091248 1340.597534,270.914276 
	C1331.061768,260.313293 1321.075317,250.163254 1311.412598,239.705307 
	C1302.518311,230.079025 1292.991455,221.105438 1283.438721,212.236832 
	C1266.462646,196.476562 1248.584473,181.724655 1230.259033,167.482269 
	C1204.884521,147.761276 1178.232056,130.002533 1150.746460,113.466560 
	C1139.394165,106.636780 1127.511597,100.684494 1115.834106,94.400291 
	C1086.125610,78.412895 1055.352783,64.694946 1023.912292,52.571606 
	C996.666016,42.065521 968.878052,33.129406 940.544006,25.846828 
	C923.464661,21.456974 906.291748,17.506725 889.000793,14.251308 
	C872.608276,11.165030 856.084717,8.635546 839.447449,6.900705 
	C823.723633,5.261123 808.012024,3.793600 792.233765,2.703332 
	C782.946655,2.061596 773.667664,2.796077 764.218384,1.374894 
	C1019.092468,1.000000 1274.184937,1.012867 1529.277344,0.885854 
	C1533.386108,0.883808 1534.109253,1.775545 1534.107300,5.774674 
	C1533.987671,248.537308 1534.000000,491.299988 1534.000000,734.531372 
z"/>
<path fill="#FFFFFF" opacity="1.000000" stroke="none" 
	d="
M731.531372,1.000000 
	C731.509155,2.244303 730.389221,2.011442 729.457275,1.976325 
	C717.997803,1.544518 706.545776,2.132859 695.161804,3.121058 
	C683.398254,4.142208 671.633606,5.293174 659.897217,6.769771 
	C647.535156,8.325076 635.213745,10.048364 622.897583,11.921268 
	C606.406250,14.429081 590.029541,17.515842 573.766785,21.151297 
	C546.351440,27.279835 519.517212,35.451218 493.077148,44.928009 
	C472.618195,52.261032 452.572083,60.577427 432.778168,69.561081 
	C417.261993,76.603249 401.894318,83.908089 386.909729,92.018204 
	C359.252441,106.987183 332.763641,123.775230 307.210968,142.127930 
	C289.328583,154.971588 272.181213,168.711273 255.577286,183.098923 
	C237.380432,198.866837 220.011719,215.586334 203.505920,233.119858 
	C186.460236,251.226883 170.129028,270.013428 154.928726,289.702667 
	C136.424240,313.671875 119.410263,338.680328 103.986176,364.776672 
	C92.381523,384.410828 81.792435,404.568756 72.034439,425.152527 
	C62.168118,445.964813 53.378094,467.243622 45.501682,488.908142 
	C36.125271,514.698486 28.169378,540.901184 21.756836,567.572388 
	C17.404129,585.676270 13.748755,603.909607 10.858746,622.325195 
	C8.364059,638.221741 6.267956,654.126160 4.878202,670.157166 
	C4.137977,678.695801 3.734423,687.274231 2.820065,695.764893 
	C1.389999,709.044373 2.717271,722.320862 1.374894,735.781616 
	C1.000000,492.572662 1.013588,249.145309 0.885190,5.718028 
	C0.883018,1.599389 1.789903,0.891438 5.779251,0.893400 
	C247.540359,1.012305 489.301514,1.000000 731.531372,1.000000 
z"/>
<path fill="#FFFFFF" opacity="1.000000" stroke="none" 
	d="
M823.468628,1517.000000 
	C823.818787,1515.382812 825.332642,1516.060791 826.543762,1516.028442 
	C845.658630,1515.518066 864.607483,1513.310425 883.595276,1511.158691 
	C916.484558,1507.431641 948.839172,1501.071289 980.870117,1492.959595 
	C1007.775146,1486.145874 1034.107300,1477.484985 1060.018555,1467.522827 
	C1075.121094,1461.716309 1089.954468,1455.292480 1104.712524,1448.681396 
	C1121.027222,1441.373047 1136.943481,1433.251221 1152.629761,1424.699585 
	C1177.783325,1410.986572 1201.975708,1395.711182 1225.345093,1379.139038 
	C1241.140259,1367.938232 1256.218506,1355.834839 1271.140991,1343.492432 
	C1292.894653,1325.499878 1313.275879,1306.057739 1332.671753,1285.628784 
	C1348.871826,1268.566162 1364.247437,1250.749023 1378.672729,1232.080811 
	C1392.703247,1213.923340 1406.087402,1195.365234 1418.476562,1176.069824 
	C1428.024292,1161.199951 1436.842896,1145.913940 1445.338867,1130.412598 
	C1455.433594,1111.994263 1464.519409,1093.102661 1472.951782,1073.899902 
	C1480.300171,1057.165161 1486.829956,1040.091675 1493.008179,1022.877197 
	C1501.946533,997.971558 1509.437500,972.640747 1515.464844,946.902100 
	C1519.336548,930.368652 1522.583618,913.688599 1525.086426,896.862488 
	C1527.550171,880.300964 1529.686157,863.728760 1531.156738,847.039551 
	C1532.084717,836.508850 1532.856689,825.991089 1533.625488,815.217896 
	C1534.000000,1047.427979 1533.985840,1279.856079 1534.115234,1512.283936 
	C1534.117554,1516.406860 1533.203979,1517.108276 1529.218872,1517.106323 
	C1294.125000,1516.987305 1059.031128,1517.000000 823.468628,1517.000000 
z"/>
<path fill="#FFFFFF" opacity="1.000000" stroke="none" 
	d="
M362.195435,1289.977539 
	C346.913666,1277.503906 332.078461,1264.940430 317.842712,1251.628540 
	C308.001862,1242.426147 298.209290,1233.165283 289.054657,1223.341431 
	C270.121887,1203.024414 252.983429,1181.220825 236.757523,1158.644043 
	C220.189880,1135.591919 205.226395,1111.646240 192.077118,1086.495972 
	C178.645874,1060.806274 167.383377,1034.211060 156.837814,1007.231262 
	C146.818771,981.598511 139.648468,955.174622 133.376633,928.496277 
	C128.927704,909.571899 125.447937,890.417542 122.934792,871.100525 
	C120.899239,855.454407 119.296776,839.782227 117.803032,824.073792 
	C115.485123,799.698059 115.557587,775.299866 116.232079,750.941650 
	C116.759560,731.892700 118.742790,712.823608 121.165886,693.902649 
	C124.320343,669.270569 128.885666,644.858154 134.569519,620.637573 
	C140.583084,595.012085 148.200333,569.909729 156.932556,545.115540 
	C162.308502,529.851074 168.610382,514.966492 175.311157,500.238403 
	C182.920746,483.512909 191.143845,467.093597 200.040756,451.029114 
	C213.362595,426.974915 227.999435,403.749451 243.995087,381.351349 
	C254.099350,367.202728 264.806610,353.538086 275.674377,340.003387 
	C283.000336,330.879547 291.063171,322.342102 298.901642,313.637085 
	C303.778656,308.220886 308.648804,302.772095 313.873932,297.700409 
	C332.470062,279.650299 351.832855,262.488861 372.060944,246.240326 
	C398.161530,225.274612 425.616089,206.294037 454.447235,189.423660 
	C480.158325,174.378983 506.704193,160.905273 534.406982,149.639572 
	C566.544373,136.570480 599.432312,126.027046 633.008545,117.584221 
	C652.169006,112.766281 671.544739,108.841324 691.119507,105.922867 
	C705.583313,103.766403 720.053894,102.012611 734.643250,100.819778 
	C749.355103,99.616920 764.103516,99.795349 778.762451,98.744034 
	C793.886230,97.659393 808.888916,98.974472 823.897339,99.310196 
	C840.267700,99.676384 856.658813,101.354424 872.982544,103.698830 
	C892.433472,106.492355 911.737854,109.912880 930.903870,114.094162 
	C945.877197,117.360756 960.722534,121.239098 975.397461,125.719009 
	C1002.304871,133.933136 1028.271362,144.533951 1053.980225,155.909729 
	C1088.119751,171.015869 1119.804810,190.336472 1150.512939,211.316574 
	C1167.590454,222.984116 1183.867554,235.748703 1199.291260,249.616455 
	C1208.283203,257.701416 1216.827148,266.286377 1225.955200,274.158722 
	C1236.312134,283.090790 1245.071411,293.476166 1254.455566,303.255890 
	C1265.130005,314.380035 1274.682861,326.588348 1283.994751,338.924622 
	C1285.970947,341.542419 1287.891235,344.240753 1290.160767,346.589478 
	C1293.336548,349.876068 1293.536255,353.794220 1292.899170,357.805786 
	C1289.277954,380.606598 1283.551758,402.845245 1275.035522,424.347290 
	C1264.845215,450.076477 1250.923462,473.661652 1234.606812,495.935486 
	C1220.857422,514.704773 1204.907227,531.494873 1187.998169,547.331055 
	C1173.491577,560.917358 1157.824707,573.182434 1141.633057,584.750366 
	C1113.671997,604.727051 1083.596069,621.062012 1052.582031,635.611267 
	C1028.035278,647.126648 1002.661621,656.535034 976.256348,663.204956 
	C959.409363,667.460510 942.429443,670.747742 925.250916,672.862671 
	C907.570984,675.039368 889.729919,673.982605 871.958740,673.887207 
	C867.255310,673.862000 862.558228,672.640198 857.429199,671.900696 
	C855.520752,669.283203 857.166138,667.308228 858.372070,665.406006 
	C869.688660,647.556091 881.220825,629.844116 892.585388,612.024231 
	C910.213989,584.382202 928.117981,556.916687 945.779968,529.295715 
	C947.231079,527.026367 948.295410,524.613037 949.020386,522.028992 
	C950.948364,515.156921 947.970276,509.345917 941.141663,507.029846 
	C932.004395,503.930664 922.706055,504.780121 913.500427,506.497284 
	C889.047363,511.058533 867.440796,521.650330 848.807739,538.093445 
	C843.805847,542.507446 840.348694,548.339050 836.774719,553.957031 
	C818.999390,581.898193 801.046509,609.725464 783.184509,637.610962 
	C782.173767,639.188843 781.180359,640.695740 778.818298,641.129272 
	C755.899841,629.940674 733.050476,619.387817 709.058655,611.590332 
	C694.115662,606.733765 678.831116,603.540588 663.121033,601.849670 
	C634.262634,598.743469 606.910583,603.698975 580.499084,615.153259 
	C559.293762,624.349731 540.220520,636.841980 522.592773,651.762756 
	C513.218689,659.697266 504.232849,667.998535 495.746399,676.837830 
	C491.306458,681.462341 487.331940,686.532227 483.113586,691.371643 
	C481.538086,693.179077 481.786957,694.715271 483.095581,696.677307 
	C488.470215,704.735718 496.577087,709.622742 504.343109,714.719360 
	C525.610840,728.676758 548.062744,740.351868 572.396179,748.118591 
	C576.428345,749.405518 580.468506,750.693726 584.565796,751.744202 
	C590.216064,753.192871 594.361328,750.796997 598.020874,746.537537 
	C611.580444,730.755188 626.384644,716.299927 642.835144,703.451599 
	C655.817993,693.311584 669.435974,684.319214 684.325562,677.359558 
	C698.747864,670.618286 713.891541,666.103699 729.719788,663.967834 
	C737.562439,662.909424 745.403687,661.864990 753.329102,662.044800 
	C756.600708,662.118896 759.860962,662.688171 763.563110,663.099365 
	C765.475952,665.719055 763.833252,667.699097 762.614990,669.588013 
	C747.470520,693.068909 732.395203,716.594360 717.333069,740.127930 
	C693.127380,777.947876 668.799927,815.689636 644.608398,853.518921 
	C627.673401,880.000977 610.559326,906.370728 593.587280,932.829956 
	C568.710449,971.612732 543.807251,1010.378662 518.914246,1049.151123 
	C489.606873,1094.799072 460.273285,1140.430298 430.991760,1186.094971 
	C409.710205,1219.283691 388.280182,1252.377075 367.124573,1285.646484 
	C365.964417,1287.470825 364.930084,1289.418335 362.195435,1289.977539 
z"/>
<path fill="#FFFFFF" opacity="1.000000" stroke="none" 
	d="
M839.642212,698.765869 
	C858.566162,706.465027 877.024475,714.337280 896.292786,720.168640 
	C913.041687,725.237488 929.911438,729.565125 947.254272,732.068542 
	C957.856445,733.598877 968.556213,734.088074 979.143555,735.299072 
	C992.989136,736.882812 1006.665588,735.663086 1020.282166,734.755188 
	C1045.778076,733.055115 1070.824707,728.027405 1095.386475,720.848083 
	C1129.767090,710.798767 1162.249634,696.138062 1193.839111,679.504822 
	C1221.382690,665.001831 1247.536743,648.205139 1272.233032,629.216614 
	C1292.124146,613.922607 1310.217407,596.578430 1327.096924,578.130981 
	C1345.610229,557.898010 1361.444214,535.560547 1373.997192,511.044495 
	C1374.591553,509.883789 1375.212036,508.727173 1375.936035,507.646149 
	C1376.285278,507.124878 1376.903809,506.783905 1377.444092,506.324036 
	C1387.787720,531.724365 1395.388672,557.823547 1401.581055,584.318237 
	C1405.818481,602.448242 1409.349121,620.734802 1412.096680,639.178894 
	C1414.686890,656.567627 1416.814697,673.971191 1418.137695,691.512573 
	C1419.108643,704.385986 1419.061279,717.335938 1420.309204,730.112427 
	C1421.660767,743.952271 1420.018799,757.591736 1419.655884,771.253662 
	C1419.212158,787.950623 1417.316895,804.667053 1415.278198,821.336731 
	C1412.690918,842.489502 1409.113647,863.437195 1404.878662,884.273499 
	C1401.664429,900.087708 1397.565063,915.725952 1393.028198,931.229797 
	C1387.206177,951.126221 1380.816895,970.828247 1373.062866,990.073120 
	C1363.138428,1014.704529 1351.626465,1038.561035 1339.102173,1061.979614 
	C1328.128052,1082.499756 1316.074707,1102.330566 1303.065308,1121.588623 
	C1290.039307,1140.871216 1276.208008,1159.549194 1261.235474,1177.402344 
	C1250.508423,1190.193115 1239.413574,1202.603394 1227.927246,1214.717285 
	C1211.542358,1231.997437 1193.766357,1247.687134 1175.596680,1263.019653 
	C1154.520874,1280.804688 1132.308838,1297.023804 1109.285278,1312.130615 
	C1081.025635,1330.673462 1051.461060,1346.989624 1020.698730,1360.931885 
	C988.553040,1375.500854 955.263428,1387.003906 921.135925,1396.210815 
	C901.893616,1401.401978 882.541565,1406.044922 863.003296,1409.746826 
	C848.544983,1412.485962 833.982239,1414.880859 819.243896,1416.131836 
	C805.439819,1417.303589 791.629883,1418.213989 777.820129,1419.209839 
	C758.525574,1420.601196 739.230164,1420.409302 720.011230,1419.728516 
	C699.346558,1418.996582 678.685120,1417.326538 658.128235,1414.191406 
	C626.586670,1409.380981 595.486450,1402.802856 564.848938,1394.008911 
	C535.904175,1385.700806 508.079498,1374.397339 480.697693,1361.947998 
	C463.386230,1354.077271 446.453552,1345.493896 430.013641,1335.306396 
	C428.948944,1332.953491 430.224609,1331.565430 431.246460,1330.024414 
	C456.809418,1291.474487 481.388519,1252.290405 506.421082,1213.398438 
	C522.906311,1187.786133 539.449524,1162.210327 555.865784,1136.554077 
	C579.997803,1098.839233 604.273376,1061.216431 628.389160,1023.491089 
	C644.162903,998.815491 660.081299,974.230713 675.897522,949.581360 
	C700.691956,910.939880 725.510559,872.313904 750.299866,833.669189 
	C766.105591,809.029358 781.904846,784.384399 797.766602,759.780029 
	C809.572998,741.466431 821.312134,723.109375 833.151062,704.817017 
	C834.713379,702.402954 835.783020,699.265198 839.642212,698.765869 
z"/>
<path fill="#5F2988" opacity="1.000000" stroke="none" 
	d="
M839.861755,698.510376 
	C824.012939,723.479736 807.995544,748.106445 792.046692,772.777405 
	C772.822021,802.515686 753.454468,832.164429 734.523621,862.089111 
	C717.414001,889.135010 700.050476,916.013123 682.672058,942.885071 
	C659.824646,978.213440 637.174133,1013.669250 614.449707,1049.077026 
	C597.165527,1076.008301 579.910522,1102.958374 562.619934,1129.885498 
	C542.166931,1161.737183 521.669983,1193.560669 501.229492,1225.420410 
	C486.495270,1248.385986 471.833252,1271.397949 457.116669,1294.374878 
	C449.494812,1306.274902 442.279755,1318.441284 433.993286,1329.906860 
	C432.844086,1331.496948 431.423157,1332.890747 429.980713,1334.687622 
	C424.094818,1334.560181 420.091431,1330.459595 415.636169,1327.692749 
	C398.034790,1316.762329 381.002045,1304.948730 364.294006,1292.682861 
	C363.502808,1292.101929 362.869659,1291.305908 361.997498,1290.305420 
	C373.555115,1271.664551 385.257782,1253.315186 397.005707,1234.994873 
	C416.647858,1204.364014 436.297638,1173.738159 455.983826,1143.135620 
	C474.527802,1114.308960 493.149109,1085.532227 511.687195,1056.701782 
	C525.917725,1034.570312 540.048157,1012.374634 554.265564,990.234802 
	C574.717896,958.385864 595.225586,926.572388 615.677185,894.722900 
	C629.894226,872.582642 644.031860,850.391418 658.249451,828.251526 
	C678.701782,796.402771 699.220520,764.596619 719.661194,732.740356 
	C734.391052,709.784363 749.039795,686.776306 763.862244,663.478943 
	C774.225037,663.744995 782.344238,669.499573 791.048950,673.954102 
	C807.182617,682.210144 823.489075,690.128357 839.861755,698.510376 
z"/>
<path fill="#5F2988" opacity="1.000000" stroke="none" 
	d="
M778.666382,641.452393 
	C787.632324,626.784729 796.793091,612.401245 805.997620,598.045715 
	C816.607178,581.498901 827.478149,565.114502 837.808838,548.395813 
	C844.739075,537.180359 854.727417,529.614929 865.569580,522.809082 
	C880.027832,513.733459 895.635376,507.500458 912.392395,504.346222 
	C921.132629,502.701050 929.949829,502.195984 938.838989,503.946259 
	C951.483337,506.435913 955.771301,517.424072 948.829224,528.528198 
	C935.828857,549.322632 922.326538,569.802734 909.071838,590.438477 
	C891.786621,617.349243 874.539124,644.284119 857.137695,671.521118 
	C839.558716,670.879639 823.332153,665.780640 808.034668,657.498901 
	C798.321289,652.240356 788.598999,646.998291 778.666382,641.452393 
z"/>
<path fill="#5F2988" opacity="1.000000" stroke="none" 
	d="
M507.222656,194.268494 
	C526.895508,181.711563 546.842957,170.570709 569.019470,163.864731 
	C575.007690,162.053955 581.001343,161.725693 587.054199,162.086426 
	C593.113037,162.447525 595.637146,167.571991 593.147461,173.472794 
	C589.012451,183.273087 581.241089,189.893631 573.023560,195.935638 
	C557.422852,207.406174 540.260742,216.518814 524.489807,227.773392 
	C510.913330,237.461929 497.978638,247.930969 485.005646,258.386292 
	C473.792328,267.423431 463.446808,277.429688 453.294647,287.519012 
	C434.724762,305.973938 417.295471,325.509796 401.084778,346.168304 
	C386.575226,364.658936 372.565186,383.459686 359.489105,402.977173 
	C342.604309,428.179565 327.873352,454.601715 315.046051,482.064758 
	C305.777527,501.908539 297.953827,522.368164 291.096039,543.158875 
	C284.080933,564.426453 278.550079,586.148926 274.230713,608.097290 
	C271.495331,621.996887 269.256317,636.041321 267.864807,650.210022 
	C266.626038,662.823059 265.763184,675.445862 264.755066,688.064697 
	C263.838623,699.536499 264.048889,710.951050 264.100739,722.374756 
	C264.178406,739.493591 265.875000,756.514160 267.844269,773.541199 
	C270.938141,800.291870 276.173584,826.603577 283.150360,852.534668 
	C289.001770,874.282959 296.287689,895.608459 304.771667,916.523560 
	C311.309998,932.642273 318.202118,948.612976 326.128235,964.056274 
	C342.793854,996.527588 361.655182,1027.690918 384.072296,1056.592163 
	C387.925812,1061.560303 387.970306,1063.622559 384.342896,1069.229492 
	C376.195984,1081.822754 364.339813,1090.208862 351.938629,1098.027832 
	C334.810699,1108.826782 317.004242,1118.067139 297.043976,1122.476196 
	C293.699768,1123.214722 290.362579,1123.865479 286.893402,1124.083618 
	C280.328125,1124.495972 275.867218,1121.770142 272.083252,1116.533813 
	C257.593445,1096.482544 243.665405,1076.042725 231.369019,1054.592285 
	C218.268295,1031.738647 206.889771,1008.020996 196.704651,983.664917 
	C184.336884,954.089172 174.786224,923.683228 167.389725,892.585327 
	C163.739929,877.240051 161.018814,861.675720 158.885468,846.001343 
	C156.558807,828.906616 154.970795,811.794861 153.783524,794.579651 
	C152.510269,776.118164 152.686035,757.671326 153.270905,739.282776 
	C153.785187,723.112854 155.638138,706.942200 157.737915,690.811951 
	C160.856064,666.858459 165.959152,643.387573 172.046188,620.092529 
	C177.048447,600.948853 183.584534,582.288940 190.605087,563.790344 
	C199.678299,539.883179 210.724548,516.887573 222.396484,494.178558 
	C236.180679,467.359955 252.606796,442.166229 269.960266,417.560028 
	C281.829132,400.730652 294.560364,384.572083 307.693359,368.704834 
	C320.417175,353.332001 333.904114,338.673950 347.277496,323.880707 
	C359.553955,310.300873 372.822083,297.788849 386.267029,285.545807 
	C413.244629,260.979828 441.516205,237.934219 471.835510,217.466675 
	C483.432770,209.637741 494.861298,201.582962 507.222656,194.268494 
z"/>
</svg>